<svg width="1303" height="344" viewBox="0 0 1303 344" fill="none" xmlns="http://www.w3.org/2000/svg">
<path d="M1209.01 334.702L1190.31 279.078H1071.87L1053.17 334.702H964.937L1081.46 8.63184H1185.99L1302.52 334.702H1209.01ZM1121.26 133.785L1094.41 212.905H1168.25L1141.4 133.785L1131.33 95.9036L1121.26 133.785Z" fill="white"/>
<path d="M978.471 116.522H886.884C878.732 86.7922 858.593 71.4477 828.863 71.4477C784.747 71.4477 759.333 109.329 759.333 172.146C759.333 234.962 784.268 271.885 828.863 271.885C856.674 271.885 877.773 257.02 885.925 229.688H977.992C962.168 304.492 902.708 343.333 830.781 343.333C731.042 343.333 669.664 278.119 669.664 172.146C669.664 66.1731 731.521 0 831.26 0C903.667 0 964.565 39.3202 978.471 116.522Z" fill="white"/>
<path d="M484.715 343.333C382.099 343.333 318.323 277.639 318.323 172.146C318.323 66.1731 382.099 0 484.715 0C587.331 0 651.107 66.1731 651.107 172.146C651.107 277.639 587.331 343.333 484.715 343.333ZM484.715 271.885C533.625 271.885 561.437 234.483 561.437 172.146C561.437 109.329 533.625 71.4477 484.715 71.4477C436.284 71.4477 407.993 109.329 407.993 172.146C407.993 234.483 436.284 271.885 484.715 271.885Z" fill="white"/>
<path d="M0 334.702V8.63184H92.5464L180.298 161.118L207.15 219.139L202.355 8.63184H289.627V334.702H197.081L109.329 181.737L82.9561 124.674L87.7512 334.702H0Z" fill="white"/>
</svg>
